<svg id="visual" viewBox="0 0 900 900" width="900" height="900" xmlns="http://www.w3.org/2000/svg" xmlns:xlink="http://www.w3.org/1999/xlink" version="1.1"><g transform="translate(525.5454683416306 474.99386943187517)"><path d="M143.2 -203.5C199.8 -123.1 269.8 -91.5 314 -27.7C358.1 36.1 376.5 132 327.9 164C279.3 196.1 163.7 164.1 67 211C-29.7 257.9 -107.5 383.6 -196.8 408.4C-286 433.3 -386.6 357.3 -445.8 256.5C-505 155.7 -522.8 30.2 -495 -80.3C-467.1 -190.7 -393.6 -286.1 -303.5 -360.5C-213.4 -435 -106.7 -488.5 -31.7 -450.7C43.3 -412.9 86.6 -283.8 143.2 -203.5" fill="#000000"></path></g></svg>