<svg id="visual" viewBox="0 0 1000 1000" width="1000" height="1000" xmlns="http://www.w3.org/2000/svg" xmlns:xlink="http://www.w3.org/1999/xlink" version="1.1"><g transform="translate(447.5009478151459 522.6709084353579)"><path d="M275.5 -458.5C347.9 -435.3 391.3 -343.1 444.7 -255.2C498.2 -167.3 561.6 -83.7 545.7 -9.2C529.8 65.3 434.7 130.7 373.7 205.4C312.7 280.2 285.8 364.4 229.2 398.9C172.7 433.4 86.3 418.2 9.5 401.7C-67.3 385.3 -134.7 367.6 -212.9 345.6C-291.1 323.6 -380.3 297.3 -412.1 239C-443.9 180.7 -418.5 90.3 -421.8 -1.9C-425.1 -94.2 -457.2 -188.3 -436 -265.1C-414.9 -341.9 -340.4 -401.3 -258.9 -419.3C-177.3 -437.4 -88.7 -414 6.4 -425.1C101.5 -436.2 203 -481.8 275.5 -458.5" fill="#2d2d2d"></path></g></svg>